<svg width="28" height="27" viewBox="0 0 28 27" fill="none" xmlns="http://www.w3.org/2000/svg">
<path d="M15.3708 0.167656C16.3438 0.163923 17.3167 0.173701 18.2895 0.19699L18.5481 0.206323C18.8468 0.21699 19.1415 0.230323 19.4975 0.246323C20.9161 0.31299 21.8841 0.53699 22.7335 0.866323C23.6135 1.20499 24.3548 1.66366 25.0961 2.40499C25.774 3.07113 26.2986 3.87692 26.6335 4.76632C26.9628 5.61566 27.1868 6.58499 27.2535 8.00366C27.2695 8.35832 27.2828 8.65432 27.2935 8.95299L27.3015 9.21166C27.3251 10.1839 27.3354 11.1565 27.3321 12.129L27.3335 13.1237V14.8703C27.3367 15.8433 27.3265 16.8163 27.3028 17.789L27.2948 18.0477C27.2841 18.3463 27.2708 18.641 27.2548 18.997C27.1881 20.4157 26.9615 21.3837 26.6335 22.233C26.2997 23.1233 25.7749 23.9298 25.0961 24.5957C24.4294 25.2734 23.6232 25.798 22.7335 26.133C21.8841 26.4623 20.9161 26.6863 19.4975 26.753C19.1415 26.769 18.8468 26.7823 18.5481 26.793L18.2895 26.801C17.3168 26.8247 16.3438 26.8349 15.3708 26.8317L14.3761 26.833H12.6308C11.6578 26.8363 10.6848 26.8261 9.71212 26.8023L9.45345 26.7943C9.13693 26.7828 8.82048 26.7695 8.50412 26.7543C7.08545 26.6877 6.11745 26.461 5.26678 26.133C4.37703 25.7988 3.5711 25.2741 2.90545 24.5957C2.22685 23.9294 1.70175 23.1231 1.36679 22.233C1.03745 21.3837 0.813452 20.4157 0.746785 18.997C0.731935 18.6806 0.718602 18.3642 0.706785 18.0477L0.700118 17.789C0.675537 16.8163 0.664424 15.8433 0.666785 14.8703V12.129C0.663064 11.1565 0.672842 10.1839 0.696118 9.21166L0.705452 8.95299C0.716118 8.65432 0.729452 8.35832 0.745452 8.00366C0.812118 6.58366 1.03612 5.61699 1.36545 4.76632C1.70062 3.87648 2.22674 3.07092 2.90679 2.40632C3.57198 1.72733 4.3774 1.20175 5.26678 0.866323C6.11745 0.53699 7.08412 0.31299 8.50412 0.246323L9.45345 0.206323L9.71212 0.199656C10.6844 0.175087 11.6569 0.163974 12.6295 0.166323L15.3708 0.167656ZM14.0001 6.83432C13.1168 6.82183 12.2398 6.98502 11.4201 7.31441C10.6004 7.6438 9.85431 8.13283 9.22525 8.75306C8.59618 9.3733 8.09665 10.1124 7.7557 10.9273C7.41475 11.7423 7.23917 12.6169 7.23917 13.5003C7.23917 14.3837 7.41475 15.2583 7.7557 16.0733C8.09665 16.8883 8.59618 17.6273 9.22525 18.2476C9.85431 18.8678 10.6004 19.3568 11.4201 19.6862C12.2398 20.0156 13.1168 20.1788 14.0001 20.1663C15.7682 20.1663 17.4639 19.4639 18.7142 18.2137C19.9644 16.9635 20.6668 15.2678 20.6668 13.4997C20.6668 11.7315 19.9644 10.0359 18.7142 8.78561C17.4639 7.53537 15.7682 6.83432 14.0001 6.83432ZM14.0001 9.50099C14.5315 9.4912 15.0594 9.58739 15.5532 9.78393C16.0469 9.98048 16.4966 10.2734 16.8758 10.6457C17.2551 11.018 17.5564 11.4621 17.762 11.9521C17.9677 12.4421 18.0737 12.9682 18.0738 13.4996C18.0739 14.0311 17.9681 14.5572 17.7626 15.0473C17.557 15.5374 17.2559 15.9816 16.8768 16.354C16.4976 16.7264 16.0481 17.0195 15.5544 17.2162C15.0607 17.4129 14.5328 17.5093 14.0015 17.4997C12.9406 17.4997 11.9232 17.0782 11.173 16.3281C10.4229 15.5779 10.0015 14.5605 10.0015 13.4997C10.0015 12.4388 10.4229 11.4214 11.173 10.6712C11.9232 9.92108 12.9406 9.49966 14.0015 9.49966L14.0001 9.50099ZM21.0001 4.83432C20.57 4.85154 20.1632 5.03452 19.8649 5.34495C19.5667 5.65538 19.4001 6.06917 19.4001 6.49966C19.4001 6.93014 19.5667 7.34393 19.8649 7.65436C20.1632 7.96479 20.57 8.14777 21.0001 8.16499C21.4421 8.16499 21.8661 7.98939 22.1786 7.67683C22.4912 7.36427 22.6668 6.94035 22.6668 6.49832C22.6668 6.05629 22.4912 5.63237 22.1786 5.31981C21.8661 5.00725 21.4421 4.83166 21.0001 4.83166V4.83432Z" fill="white"/>
</svg>
