<svg width="32" height="33" viewBox="0 0 32 33" fill="none" xmlns="http://www.w3.org/2000/svg">
<g clip-path="url(#clip0_1024_7175)">
<path fill-rule="evenodd" clip-rule="evenodd" d="M24 4.5C25.0609 4.5 26.0783 4.92143 26.8284 5.67157C27.5786 6.42172 28 7.43913 28 8.5V24.5C28 25.5609 27.5786 26.5783 26.8284 27.3284C26.0783 28.0786 25.0609 28.5 24 28.5H8C6.93913 28.5 5.92172 28.0786 5.17157 27.3284C4.42143 26.5783 4 25.5609 4 24.5V8.5C4 7.43913 4.42143 6.42172 5.17157 5.67157C5.92172 4.92143 6.93913 4.5 8 4.5H24ZM10.6667 13.8333C10.313 13.8333 9.97391 13.9738 9.72386 14.2239C9.47381 14.4739 9.33333 14.813 9.33333 15.1667V21.8333C9.33333 22.187 9.47381 22.5261 9.72386 22.7761C9.97391 23.0262 10.313 23.1667 10.6667 23.1667C11.0203 23.1667 11.3594 23.0262 11.6095 22.7761C11.8595 22.5261 12 22.187 12 21.8333V15.1667C12 14.813 11.8595 14.4739 11.6095 14.2239C11.3594 13.9738 11.0203 13.8333 10.6667 13.8333ZM14.6667 12.5C14.313 12.5 13.9739 12.6405 13.7239 12.8905C13.4738 13.1406 13.3333 13.4797 13.3333 13.8333V21.8333C13.3333 22.187 13.4738 22.5261 13.7239 22.7761C13.9739 23.0262 14.313 23.1667 14.6667 23.1667C15.0203 23.1667 15.3594 23.0262 15.6095 22.7761C15.8595 22.5261 16 22.187 16 21.8333V16.9533C16.4067 16.4947 17.0933 15.956 17.8573 15.6293C18.3013 15.44 18.9693 15.3627 19.4333 15.5093C19.5873 15.5484 19.7244 15.6363 19.824 15.76C19.8933 15.8533 20 16.0613 20 16.5V21.8333C20 22.187 20.1405 22.5261 20.3905 22.7761C20.6406 23.0262 20.9797 23.1667 21.3333 23.1667C21.687 23.1667 22.0261 23.0262 22.2761 22.7761C22.5262 22.5261 22.6667 22.187 22.6667 21.8333V16.5C22.6667 15.6067 22.44 14.812 21.968 14.1747C21.5337 13.5967 20.9258 13.173 20.2333 12.9653C19.0307 12.588 17.6987 12.7973 16.8093 13.1787C16.5244 13.3006 16.247 13.4395 15.9787 13.5947C15.9228 13.2875 15.7608 13.0096 15.5211 12.8096C15.2813 12.6095 14.9789 12.5 14.6667 12.5ZM10.6667 9.83333C10.313 9.83333 9.97391 9.97381 9.72386 10.2239C9.47381 10.4739 9.33333 10.813 9.33333 11.1667C9.33333 11.5203 9.47381 11.8594 9.72386 12.1095C9.97391 12.3595 10.313 12.5 10.6667 12.5C11.0203 12.5 11.3594 12.3595 11.6095 12.1095C11.8595 11.8594 12 11.5203 12 11.1667C12 10.813 11.8595 10.4739 11.6095 10.2239C11.3594 9.97381 11.0203 9.83333 10.6667 9.83333Z" fill="white"/>
</g>
<defs>
<clipPath id="clip0_1024_7175">
<rect width="32" height="32" fill="white" transform="translate(0 0.5)"/>
</clipPath>
</defs>
</svg>
