<svg width="32" height="33" viewBox="0 0 32 33" fill="none" xmlns="http://www.w3.org/2000/svg">
<path fill-rule="evenodd" clip-rule="evenodd" d="M16.0001 5.83398C17.1401 5.83398 18.3094 5.86332 19.4427 5.91132L20.7814 5.97532L22.0627 6.05132L23.2627 6.13265L24.3587 6.21798C25.5481 6.30902 26.6673 6.81658 27.5194 7.65137C28.3716 8.48616 28.902 9.5947 29.0174 10.782L29.0707 11.3487L29.1707 12.562C29.2641 13.8193 29.3334 15.19 29.3334 16.5007C29.3334 17.8113 29.2641 19.182 29.1707 20.4393L29.0707 21.6527C29.0534 21.8473 29.0361 22.0353 29.0174 22.2193C28.9019 23.4068 28.3713 24.5155 27.5189 25.3503C26.6666 26.1852 25.5471 26.6926 24.3574 26.7833L23.2641 26.8673L22.0641 26.95L20.7814 27.026L19.4427 27.09C18.2959 27.1398 17.1481 27.1656 16.0001 27.1673C14.8521 27.1656 13.7043 27.1398 12.5574 27.09L11.2187 27.026L9.93741 26.95L8.73741 26.8673L7.64141 26.7833C6.45201 26.6923 5.33282 26.1847 4.48071 25.3499C3.62861 24.5151 3.09818 23.4066 2.98275 22.2193L2.92941 21.6527L2.82941 20.4393C2.72746 19.1288 2.67321 17.8151 2.66675 16.5007C2.66675 15.19 2.73608 13.8193 2.82941 12.562L2.92941 11.3487C2.94675 11.154 2.96408 10.966 2.98275 10.782C3.09814 9.59491 3.62837 8.48654 4.4802 7.65178C5.33204 6.81701 6.45092 6.30932 7.64008 6.21798L8.73475 6.13265L9.93475 6.05132L11.2174 5.97532L12.5561 5.91132C13.7034 5.86149 14.8517 5.83571 16.0001 5.83398ZM13.3334 13.2673V19.734C13.3334 20.35 14.0001 20.734 14.5334 20.4273L20.1334 17.194C20.2553 17.1238 20.3565 17.0228 20.4269 16.9011C20.4972 16.7794 20.5343 16.6413 20.5343 16.5007C20.5343 16.36 20.4972 16.2219 20.4269 16.1002C20.3565 15.9785 20.2553 15.8775 20.1334 15.8073L14.5334 12.5753C14.4118 12.5051 14.2738 12.4681 14.1333 12.4681C13.9928 12.4682 13.8548 12.5052 13.7332 12.5754C13.6116 12.6457 13.5106 12.7468 13.4404 12.8685C13.3702 12.9902 13.3333 13.1282 13.3334 13.2687V13.2673Z" fill="white"/>
</svg>
